<?xml version="1.0" standalone="no"?>
<!DOCTYPE svg PUBLIC "-//W3C//DTD SVG 20010904//EN"
 "http://www.w3.org/TR/2001/REC-SVG-20010904/DTD/svg10.dtd">
<svg version="1.0" xmlns="http://www.w3.org/2000/svg"
 width="1498.000000pt" height="1498.000000pt" viewBox="0 0 1498.000000 1498.000000"
 preserveAspectRatio="xMidYMid meet">
<metadata>
Created by potrace 1.11, written by Peter Selinger 2001-2013
</metadata>
<g transform="translate(0.000000,1498.000000) scale(0.100000,-0.100000)"
fill="#000000" stroke="none">
<path d="M8645 11606 c-103 -34 -317 -117 -355 -136 -63 -32 -128 -103 -163
-178 -30 -63 -32 -73 -31 -177 l0 -110 251 -682 c138 -376 262 -704 275 -730
70 -140 251 -228 419 -202 66 10 365 119 427 155 62 36 119 100 155 174 30 60
32 71 32 170 l0 105 -248 675 c-136 371 -259 698 -272 727 -34 75 -106 147
-183 185 -59 29 -76 33 -166 35 -65 2 -115 -2 -141 -11z m110 -453 c7 -18 358
-976 421 -1149 l33 -91 -101 -38 c-55 -20 -104 -33 -108 -28 -10 10 -462 1244
-458 1249 4 3 190 72 199 73 4 1 10 -7 14 -16z"/>
<path d="M6897 11324 c-153 -37 -698 -200 -747 -223 -147 -70 -258 -271 -235
-431 10 -73 205 -750 233 -810 55 -118 189 -212 332 -231 92 -13 108 -10 530
111 384 110 435 132 506 213 78 91 122 222 111 335 -7 78 -202 755 -235 817
-35 66 -116 147 -179 178 -106 54 -208 67 -316 41z m195 -744 c48 -168 87
-311 85 -319 -2 -17 -625 -197 -636 -184 -13 14 -183 624 -176 631 10 11 598
180 620 178 17 -1 31 -43 107 -306z"/>
<path d="M4115 10716 c-236 -46 -444 -182 -574 -376 -101 -151 -151 -313 -151
-490 0 -350 180 -647 485 -800 513 -257 1117 17 1268 575 25 95 29 293 8 390
-39 178 -133 347 -257 466 -116 110 -220 170 -371 215 -109 32 -298 41 -408
20z m264 -441 c132 -32 235 -115 298 -242 37 -76 38 -79 38 -193 0 -114 -1
-117 -38 -192 -87 -178 -282 -281 -469 -248 -261 45 -428 301 -363 555 40 153
165 275 325 317 81 21 128 22 209 3z"/>
<path d="M5720 9868 c-30 -11 -74 -34 -97 -50 -23 -15 -254 -263 -512 -551
l-471 -522 -267 -59 c-148 -33 -277 -61 -289 -64 -19 -3 -21 2 -27 63 -11 111
-80 236 -167 300 -77 56 -691 373 -755 390 -32 8 -85 15 -116 15 -115 0 -268
-71 -335 -157 -50 -62 -381 -701 -399 -768 -19 -75 -19 -145 0 -218 22 -84 51
-134 116 -203 l59 -61 0 -74 c0 -96 -29 -158 -108 -230 -64 -58 -112 -82 -195
-98 -185 -33 -308 -195 -347 -458 -7 -43 -14 -87 -16 -98 -2 -12 -36 -40 -80
-69 -202 -131 -310 -269 -333 -426 l-6 -45 -180 -6 c-174 -5 -182 -6 -246 -36
-114 -53 -190 -136 -229 -254 -18 -52 -21 -81 -18 -155 3 -81 8 -100 40 -166
20 -40 47 -83 60 -94 13 -12 281 -176 597 -365 512 -307 575 -348 592 -381 29
-57 54 -128 108 -313 68 -231 104 -328 155 -416 86 -146 213 -237 361 -259 48
-7 1586 -10 4835 -8 4604 3 4767 4 4820 21 82 28 163 81 220 145 94 105 150
238 265 632 20 68 51 151 68 184 l32 59 570 343 c359 216 580 355 598 376 43
51 75 126 88 203 34 213 -116 429 -329 474 -32 7 -167 11 -336 11 l-283 0 -39
63 c-45 74 -129 165 -202 219 -29 21 -65 57 -80 80 -25 39 -27 50 -33 187 -6
126 -10 156 -34 220 -87 230 -299 412 -531 458 l-81 16 -34 71 c-45 93 -176
229 -263 270 -89 43 -161 65 -232 72 l-64 7 -10 41 c-51 202 -177 374 -350
477 -61 36 -70 45 -70 70 0 45 -205 749 -235 809 -73 144 -248 240 -415 228
-78 -6 -758 -196 -828 -232 -82 -42 -138 -100 -183 -190 -35 -71 -41 -95 -47
-172 l-7 -89 -30 0 c-100 0 -614 17 -635 21 -22 4 -29 17 -58 109 -56 174
-147 309 -287 422 -99 79 -212 136 -341 169 -90 23 -112 25 -244 21 -164 -5
-244 -24 -363 -83 -247 -124 -416 -340 -473 -604 -20 -92 -10 -86 -149 -95
-49 -3 -170 -13 -268 -22 -98 -8 -180 -13 -183 -10 -3 2 9 27 25 54 50 81 64
130 64 223 0 101 -24 174 -82 248 -41 52 -257 249 -318 290 -91 62 -256 81
-363 40z m225 -505 c42 -37 74 -72 73 -79 -3 -11 -723 -815 -843 -941 l-50
-52 -79 73 -79 74 19 25 c34 46 869 966 876 967 4 0 41 -30 83 -67z m2014 16
c184 -42 325 -208 338 -396 9 -135 -30 -245 -120 -341 -260 -274 -706 -126
-760 252 -26 181 64 355 230 444 33 17 78 36 99 41 53 12 160 13 213 0z m2650
-379 c49 -173 89 -316 88 -317 -4 -3 -641 -182 -643 -180 -4 5 -177 614 -178
626 -1 11 85 40 314 106 173 50 318 89 322 86 4 -3 47 -148 97 -321z m-7291
-207 c156 -82 286 -153 289 -159 3 -8 -284 -572 -301 -591 -1 -2 -588 306
-593 310 -1 1 38 76 86 167 48 91 118 222 155 293 37 70 70 127 73 127 4 0
135 -66 291 -147z m5919 -144 l313 -12 14 -51 c8 -28 27 -94 41 -146 33 -116
78 -200 142 -262 89 -87 232 -137 351 -122 73 8 663 174 764 214 l77 31 38
-20 c87 -44 139 -131 153 -253 5 -44 19 -100 30 -123 54 -112 223 -204 380
-206 130 -2 190 -58 215 -199 18 -104 49 -153 119 -188 41 -20 71 -26 175 -32
138 -7 165 -16 232 -77 69 -62 82 -100 84 -243 2 -84 8 -143 20 -180 22 -71
85 -190 131 -246 l36 -44 -3990 0 -3991 0 20 34 c28 47 71 386 57 450 -21 99
-97 165 -199 173 -57 4 -70 2 -119 -24 -91 -48 -108 -86 -137 -305 -25 -192
-25 -237 1 -289 9 -18 16 -34 16 -36 0 -1 -534 -3 -1187 -3 l-1188 1 37 32
c20 18 80 59 135 91 199 120 214 141 224 300 7 109 22 199 37 224 5 6 34 19
65 27 234 61 464 284 542 525 10 30 19 56 20 58 2 2 55 -24 119 -58 135 -72
194 -90 291 -91 85 -1 141 13 218 54 101 53 139 105 301 412 21 39 24 41 126
67 58 16 212 53 344 83 226 53 239 55 252 38 7 -10 14 -21 14 -24 1 -18 79
-100 195 -205 98 -88 148 -126 205 -153 71 -34 80 -36 175 -35 107 0 157 15
238 71 27 19 540 576 552 600 3 6 369 46 665 72 184 17 358 33 385 36 l51 5
33 -68 c132 -268 393 -453 699 -493 244 -33 516 61 709 244 79 76 173 206 207
290 12 29 24 57 28 62 7 12 99 11 535 -6z m4347 -2618 c-5 -4 -243 -149 -528
-322 -578 -349 -549 -326 -630 -494 -46 -95 -90 -223 -153 -444 -44 -157 -97
-270 -133 -288 -20 -10 -1018 -13 -4738 -13 l-4714 0 -32 33 c-39 39 -59 90
-136 352 -83 281 -156 448 -229 525 -14 15 -253 164 -531 330 -278 167 -514
309 -525 317 -16 11 992 13 6170 13 3465 0 6185 -4 6179 -9z"/>
<path d="M8839 8493 c-37 -19 -63 -42 -84 -73 -26 -39 -30 -54 -30 -116 0 -61
4 -77 30 -120 52 -84 93 -99 325 -118 133 -11 205 -13 228 -7 154 45 215 221
121 350 -46 65 -91 81 -258 97 -224 21 -268 19 -332 -13z"/>
<path d="M6908 8176 c-56 -20 -85 -42 -114 -86 -71 -108 -39 -251 71 -315 39
-24 65 -29 198 -41 231 -20 265 -19 328 14 127 66 156 231 62 343 -48 57 -89
69 -281 84 -215 17 -218 17 -264 1z"/>
<path d="M5725 8142 c-134 -64 -172 -254 -70 -354 25 -26 261 -176 331 -211
148 -75 318 34 317 203 -1 62 -25 120 -65 156 -12 12 -95 66 -183 120 -154 95
-162 99 -225 102 -48 2 -75 -2 -105 -16z"/>
<path d="M8246 8034 c-42 -13 -72 -38 -189 -152 -159 -157 -181 -190 -181
-277 0 -138 116 -240 251 -220 68 10 91 27 245 182 144 145 168 182 168 262 0
42 -31 116 -63 149 -54 59 -150 81 -231 56z"/>
<path d="M10144 8025 c-111 -55 -153 -190 -95 -303 25 -50 33 -55 206 -162
202 -125 237 -136 326 -105 134 48 189 209 113 331 -25 39 -55 62 -199 152
-164 102 -172 106 -235 109 -55 4 -73 0 -116 -22z"/>
<path d="M4046 7990 c-57 -18 -95 -56 -193 -199 -127 -186 -136 -203 -136
-271 0 -126 97 -220 225 -220 70 1 127 27 170 81 70 87 202 294 215 339 16 51
10 107 -17 160 -47 91 -163 140 -264 110z"/>
<path d="M4795 7661 c-107 -26 -175 -113 -175 -223 0 -88 54 -170 135 -204 17
-7 115 -20 219 -28 217 -18 252 -14 317 42 100 86 107 235 14 327 -51 52 -87
62 -270 75 -82 6 -163 12 -180 14 -16 2 -43 1 -60 -3z"/>
<path d="M9761 7598 c-59 -10 -116 -51 -149 -107 -38 -66 -35 -129 17 -321 24
-85 49 -169 58 -187 63 -134 251 -164 356 -57 78 78 81 125 22 349 -49 186
-63 224 -99 263 -44 49 -128 74 -205 60z"/>
<path d="M11137 7469 c-48 -11 -91 -33 -118 -62 -46 -48 -220 -319 -230 -359
-32 -117 39 -232 164 -270 51 -15 137 2 182 37 37 27 215 281 246 348 35 78
21 167 -36 234 -50 58 -137 88 -208 72z"/>
<path d="M2995 7368 c-128 -45 -182 -201 -112 -321 22 -38 50 -60 164 -133
238 -151 277 -164 370 -124 148 63 189 246 82 360 -26 28 -270 182 -334 211
-44 20 -123 23 -170 7z"/>
<path d="M8651 7319 c-166 -55 -187 -64 -225 -102 -89 -89 -88 -217 2 -310 37
-38 107 -67 163 -67 33 0 339 95 389 120 160 82 160 309 1 392 -78 41 -116 37
-330 -33z"/>
<path d="M7070 7231 c-131 -43 -197 -165 -156 -289 17 -51 82 -124 122 -135
10 -3 98 -27 194 -53 201 -53 247 -54 315 -6 101 71 131 193 72 296 -40 71
-77 91 -262 141 -180 49 -245 59 -285 46z"/>
<path d="M6122 7206 c-70 -23 -102 -56 -216 -225 -104 -152 -110 -164 -114
-220 -5 -71 10 -121 51 -167 85 -98 241 -101 329 -7 40 43 188 262 214 318 28
58 30 105 9 166 -39 108 -164 170 -273 135z"/>
<path d="M2880 5361 c-74 -23 -117 -61 -149 -131 -35 -77 -21 -163 37 -231 69
-80 58 -79 622 -79 563 0 550 -2 622 78 98 108 66 274 -65 345 -42 22 -46 22
-542 24 -275 1 -511 -2 -525 -6z"/>
<path d="M4878 5356 c-80 -29 -128 -80 -149 -158 -27 -99 32 -218 129 -259 43
-19 133 -19 3549 -19 2598 0 3516 3 3544 11 75 23 137 95 152 177 16 83 -38
193 -115 234 l-43 23 -3515 2 c-2914 2 -3521 0 -3552 -11z"/>
</g>
</svg>
